<svg xmlns="http://www.w3.org/2000/svg" viewBox="0 0 600 96.94" fill="white"><defs><style>.cls-2{opacity:0.85;}</style></defs><path class="cls-1" d="M359.44,48.47c0-15.33,11.68-26.13,27.16-26.13s27.16,10.8,27.16,26.13S402.08,74.6,386.6,74.6,359.44,63.65,359.44,48.47Zm39,0c0-7.15-4.53-12.41-11.68-12.41s-11.68,5.26-11.68,12.41,4.52,12.41,11.68,12.41S398.43,55.77,398.43,48.47Zm-49.2-12.12a14.49,14.49,0,0,1,1.46,6.57c0,5.55-2.92,10.66-7.6,14.6C349.52,60.59,353.31,68,353.31,75c0,13.14-10.65,21.9-26.86,21.9S299.59,88.33,299.59,75a19.48,19.48,0,0,1,10.22-17.52c-4.82-3.94-7.6-9.05-7.6-14.6,0-11.53,9.06-20,23.36-20,8.47,0,10.95,1.46,15.77,1.46a16.39,16.39,0,0,0,9.35-2.48,6.43,6.43,0,0,1,3.21-1c1.9,0,2.92,1.9,2.92,4.23A10.9,10.9,0,0,1,349.23,36.35Zm-11,38.25c0-5.84-4.53-9.92-11.68-9.92s-11.68,3.94-11.68,9.92c0,5.55,5,9.93,11.68,9.93S338.28,80.15,338.28,74.6ZM317.11,43.8a9.42,9.42,0,0,0,18.83,0c0-5.26-3.8-8.91-9.34-8.91S317.11,38.4,317.11,43.8Zm-24.53,5.69V67.74c0,3.51-1.32,5-5.11,5h-5.11c-3.8,0-5.11-1.46-5.11-5V49.93c0-4.52-.73-7.74-2.34-9.78a9.35,9.35,0,0,0-7.74-3.36,10.42,10.42,0,0,0-8,3.36c-1.75,2-2.92,5.26-2.92,9.64V67.6c0,3.65-1.6,5-5.1,5H246c-3.51,0-5.11-1.31-5.11-5V26.72c0-2.34,1.16-3.36,2.92-3.36,2.62,0,6.27,2.19,9.05,6.42a22.23,22.23,0,0,1,16.49-7.3c7.45,0,13.44,2.63,17.38,7S292.58,39.86,292.58,49.49ZM212.86,8.32A8.45,8.45,0,0,1,221.33,0h.29a8.27,8.27,0,1,1-1,16.5A8.08,8.08,0,0,1,212.86,8.32Zm1,59.42V29.35c0-3.51,1.31-5.11,5.11-5.11h5.11c3.79,0,5.11,1.46,5.11,5.11V67.74c0,3.51-1.32,5-5.11,5H219c-3.8,0-5.11-1.46-5.11-5Zm-27,0V19.56c0-12.11,6.71-19,12.41-19,1.75,0,2.92,1.17,2.92,3.36v63.8c0,3.65-1.46,5-5.11,5H192C188.48,72.71,186.88,71.39,186.88,67.74ZM123.81,48.47c0-15.33,11.68-26.13,27.15-26.13s27.16,10.8,27.16,26.13S166.44,74.6,151,74.6,123.81,63.65,123.81,48.47Zm38.83,0c0-7.15-4.53-12.41-11.68-12.41s-11.68,5.26-11.68,12.41S143.81,60.88,151,60.88s11.68-5.11,11.68-12.41ZM115.92,29.35V70.22c0,2.34-1.17,3.36-2.92,3.36-2.63,0-6.28-2.19-8.9-6.28a20.77,20.77,0,0,1-16.21,7.16,22.57,22.57,0,0,1-15.77-5.84c-4.52-4.38-7-11.1-7-20.73V29.35c0-3.51,1.32-5.11,5.11-5.11h5.11c3.8,0,5.11,1.46,5.11,5.11V46.57c0,5.84,1,8.91,2.92,11a9.24,9.24,0,0,0,6.87,2.63,9.8,9.8,0,0,0,7.3-3.07c1.89-2,2.92-5.25,2.92-10.21V29.35c0-3.65,1.6-5.11,5.11-5.11h5.11C114.32,24.24,115.92,25.7,115.92,29.35ZM54.6,3.94V70.22c0,2.34-1.17,3.36-2.92,3.36-2.62,0-6.27-2.19-8.9-6.13C39.57,71.25,33,74.6,25.4,74.6,10.22,74.6,0,63.51,0,48.47S10.51,22.34,25.4,22.34a25.48,25.48,0,0,1,14,4.23v-7c0-12.11,6.86-19,12.41-19C53.58.58,54.6,1.75,54.6,3.94ZM39.42,48.47c0-7.44-5.26-12.41-11.83-12.41s-12,5-12,12.41,5.26,12.41,12,12.41S39.42,56.06,39.42,48.47Z"></path><g class="cls-2"><path class="cls-1" d="M439.83,68.18V9c0-2.77,1.78-4.44,4.14-4.44s4.14,1.67,4.14,4.44v21.1h.1c2.17-3.65,6.32-6.31,13.42-6.31,8,0,13.8,4.44,16.27,11.83a40.57,40.57,0,0,1,1.67,12.82,40.78,40.78,0,0,1-1.67,12.92c-2.47,7.4-8.29,11.84-16.27,11.84-7,0-11.15-2.57-13.42-6.31h-.1v1.28c0,2.76-1.77,4.44-4.14,4.44S439.83,70.94,439.83,68.18ZM470,58.12c.89-2.57,1.08-5.52,1.08-9.67s-.19-7-1.08-9.56c-1.58-4.74-5.13-7.4-10.36-7.4s-8.87,2.66-10.45,7.4c-.89,2.56-1.09,5.52-1.09,9.56s.2,7.1,1.09,9.67c1.58,4.73,5.13,7.39,10.45,7.39S468.43,62.85,470,58.12Z"></path><path class="cls-1" d="M501.83,72.62c-8.48,0-11.54-4.15-11.54-12.63V9c0-2.77,1.78-4.44,4.14-4.44s4.15,1.67,4.15,4.44V59.5c0,3.94,1.28,5.42,4.53,5.42A3.63,3.63,0,0,1,507,68.77c0,2.27-1.48,3.85-4.24,3.85Z"></path><path class="cls-1" d="M513.66,60.48c-1.08-3.25-1.58-6.5-1.58-12s.5-8.67,1.58-11.93c2.57-8.09,9.47-12.72,18.64-12.72s16.08,4.63,18.64,12.72c1.09,3.26,1.58,6.51,1.58,11.93s-.49,8.78-1.58,12c-2.56,8-9.47,12.73-18.64,12.73S516.23,68.47,513.66,60.48ZM543,58.12c.79-2.57,1.09-5.13,1.09-9.67s-.3-7-1.09-9.56c-1.58-4.74-5.42-7.4-10.65-7.4s-9.07,2.66-10.65,7.4c-.79,2.56-1.08,5-1.08,9.56s.29,7.1,1.08,9.67c1.58,4.73,5.42,7.39,10.65,7.39S541.37,62.85,543,58.12Z"></path><path class="cls-1" d="M591.72,30V28.83c0-2.76,1.77-4.44,4.14-4.44S600,26.07,600,28.83V69.76c0,14.1-7.49,21.2-20.61,21.2-6.21,0-12.13-2.57-15-5.62a3.87,3.87,0,0,1-1.19-2.67A3.71,3.71,0,0,1,567,78.83a5.71,5.71,0,0,1,3.36,1.28,15.75,15.75,0,0,0,9.36,3.16c7.6,0,12-3.75,12-12.82V65.32h-.1c-2.37,3.94-6.31,6.21-13.22,6.21-7.89,0-13.51-4.34-15.88-11.74A37.82,37.82,0,0,1,561,47.66a37.91,37.91,0,0,1,1.57-12.13c2.37-7.39,8-11.73,15.88-11.73,7,0,11,2.66,13.22,6.21Zm-1.09,26.53a26.71,26.71,0,0,0,1.09-8.88,26.41,26.41,0,0,0-1.09-8.77c-1.68-4.93-4.93-7.4-10.06-7.4s-8.38,2.47-10.06,7.4a26.45,26.45,0,0,0-1.08,8.77,26.75,26.75,0,0,0,1.08,8.88c1.68,4.93,4.93,7.4,10.06,7.4S589,61.47,590.63,56.54Z"></path></g></svg>